<?xml version="1.0"?>
<svg xmlns="http://www.w3.org/2000/svg" id="Capa_1" enable-background="new 0 0 512 512" height="512px" viewBox="0 0 512 512" width="512px"><g><g><path d="m437.02 74.98c-48.353-48.351-112.64-74.98-181.02-74.98s-132.667 26.629-181.02 74.98c-48.351 48.353-74.98 112.64-74.98 181.02s26.629 132.667 74.98 181.02c48.353 48.351 112.64 74.98 181.02 74.98s132.667-26.629 181.02-74.98c48.351-48.353 74.98-112.64 74.98-181.02s-26.629-132.667-74.98-181.02zm-181.02 407.02c-124.617 0-226-101.383-226-226s101.383-226 226-226 226 101.383 226 226-101.383 226-226 226z" data-original="#000000" class="active-path" data-old_color="#000000" fill="#808080"/><path d="m346 141h-60c-8.284 0-15 6.716-15 15v200c0 8.284 6.716 15 15 15h60c8.284 0 15-6.716 15-15v-200c0-8.284-6.716-15-15-15zm-15 200h-30v-170h30z" data-original="#000000" class="active-path" data-old_color="#000000" fill="#808080"/><path d="m226 141h-60c-8.284 0-15 6.716-15 15v200c0 8.284 6.716 15 15 15h60c8.284 0 15-6.716 15-15v-200c0-8.284-6.716-15-15-15zm-15 200h-30v-170h30z" data-original="#000000" class="active-path" data-old_color="#000000" fill="#808080"/></g></g> </svg>
